<svg xmlns="http://www.w3.org/2000/svg" width="45" height="45" version="1.0">
  <g class="piece-svg" stroke="black" fill="white" stroke-width="1.5">
    <path fill-rule="evenodd" stroke-linejoin="round" d="M9 36c3.385-.972 10.115.43 13.5-2 3.385 2.43 10.115 1.028 13.5 2 0 0 1.646.542 3 2-.677.972-1.646.986-3 .5-3.385-.972-10.115.458-13.5-1-3.385 1.458-10.115.028-13.5 1-1.354.486-2.323.472-3-.5 1.354-1.945 3-2 3-2z"/>
    <path fill-rule="evenodd" stroke-linejoin="round" d="M15 32c2.5 2.5 12.5 2.5 15 0 .5-1.5 0-2 0-2 0-2.5-2.5-4-2.5-4 5.5-1.5 6-11.5-5-15.5-11 4-10.5 14-5 15.5 0 0-2.5 1.5-2.5 4 0 0-.5.5 0 2z"/>
    <path stroke-linejoin="round" d="M25 8a2.5 2.5 0 1 1-5 0 2.5 2.5 0 1 1 5 0z"/>
    <path d="M17.5 26h10M15 30h15"/>
    <path stroke-linecap="round" d="M22.5 15.5v5M20 18h5"/>
  </g>
</svg>