<svg width="45" height="45" xmlns="http://www.w3.org/2000/svg" viewbox="0 0 45 45" preserveAspectRatio="xMinYMin meet"><style>.piece-svg{stroke: var(--stroke, #000);fill: var(--fill, #fff)}</style><g class="piece-svg" fill-rule="evenodd" stroke-width="1.5"><path stroke-linecap="round" d="M22.5 11.625V6" /><path d="M22.5 25s4.5-7.5 3-10.5c0 0-1-2.5-3-2.5s-3 2.5-3 2.5c-1.5 3 3 10.5 3 10.5" /><path stroke-linecap="round" stroke-linejoin="round" d="M11.5 37c5.5 3.5 15.5 3.5 21 0v-7s9-4.5 6-10.5c-4-6.5-13.5-3.5-16 4V27v-3.5c-3.5-7.5-13-10.5-16-4-3 6 5 10 5 10V37z" /><path stroke-linecap="round" d="M20 8h5M11.5 29.5C17 27 27 27 32.5 30" /><path stroke-linecap="round" stroke-linejoin="round" d="M11.5 37c5.5-2.5 15.5-2.5 21 0M11.5 33.5c5.5-2 15.5-2 21 0" /></g></svg>